<?xml version="1.0" encoding="utf-8"?>
<!-- Generator: Adobe Illustrator 26.0.3, SVG Export Plug-In . SVG Version: 6.00 Build 0)  -->
<svg version="1.0" id="katman_1" xmlns="http://www.w3.org/2000/svg" xmlns:xlink="http://www.w3.org/1999/xlink" x="0px" y="0px"
	 viewBox="0 0 600 450" style="enable-background:new 0 0 600 450;" xml:space="preserve">
<style type="text/css">
	.st0{fill:#03438b;}
</style>
<symbol  id="icon-gas" viewBox="-7.5 -7.5 15 15">
	<path class="st0" d="M7.4-4.4l-2-2C5.3-6.4,5.1-6.5,5-6.5H4C3.7-6.5,3.5-6.3,3.5-6S3.7-5.5,4-5.5h0.5l1,1H5C4.7-4.5,4.5-4.3,4.5-4
		v2c0,0.3,0.2,0.5,0.5,0.5h1.5v4c0,0.6-0.4,1-1,1s-1-0.4-1-1V0c0-0.3-0.2-0.5-0.5-0.5H2.5V-6c0-0.8-0.7-1.5-1.5-1.5h-6
		c-0.8,0-1.5,0.7-1.5,1.5V6.5h-1v1h11v-1h-1v-6h1v2c0,1.1,0.9,2,2,2s2-0.9,2-2V-4C7.5-4.1,7.4-4.3,7.4-4.4z M-5.5-3v-3
		c0-0.3,0.2-0.5,0.5-0.5h6c0.3,0,0.5,0.2,0.5,0.5v3c0,0.3-0.2,0.5-0.5,0.5h-6C-5.3-2.5-5.5-2.7-5.5-3z M5.5-2.5v-1h1v1H5.5z"/>
</symbol>
<use xlink:href="#icon-gas"  width="15" height="15" x="-7.5" y="-7.5" transform="matrix(17.4048 0 0 17.4048 300 225)" style="overflow:visible;"/>
</svg>
