<?xml version="1.0" standalone="no"?>
<!DOCTYPE svg PUBLIC "-//W3C//DTD SVG 20010904//EN"
 "http://www.w3.org/TR/2001/REC-SVG-20010904/DTD/svg10.dtd">
<svg version="1.0" xmlns="http://www.w3.org/2000/svg"
 width="400.000000pt" height="400.000000pt" viewBox="0 0 400.000000 400.000000"
 preserveAspectRatio="xMidYMid meet">

<g transform="translate(0.000000,400.000000) scale(0.100000,-0.100000)"
fill="#000000" stroke="none">
<path d="M1233 3989 c-62 -12 -121 -41 -178 -86 -102 -82 -67 42 -583 -2025
l-470 -1878 735 0 c830 0 765 -6 850 82 88 91 98 124 361 1233 l88 370 -303 3
c-219 2 -303 5 -303 14 0 6 59 246 131 532 142 566 155 605 237 676 24 22 69
48 98 60 53 19 75 20 858 20 896 0 856 -3 939 70 81 72 105 136 206 545 50
204 93 376 96 383 3 9 -272 12 -1358 11 -749 -1 -1381 -5 -1404 -10z"/>
<path d="M2029 2726 c-152 -32 -192 -114 -325 -654 -41 -169 -77 -313 -79
-320 -4 -10 132 -12 698 -10 l702 3 55 26 c135 63 170 125 239 419 28 118 71
290 94 383 l43 167 -685 -1 c-497 0 -702 -4 -742 -13z"/>
<path d="M2438 1240 c-131 -24 -251 -85 -342 -176 -200 -200 -239 -511 -96
-755 112 -189 312 -303 535 -303 347 0 619 272 619 619 0 333 -254 601 -588
619 -44 3 -102 1 -128 -4z"/>
</g>
</svg>
