<?xml version="1.0" standalone="no"?>
<!DOCTYPE svg PUBLIC "-//W3C//DTD SVG 20010904//EN"
 "http://www.w3.org/TR/2001/REC-SVG-20010904/DTD/svg10.dtd">
<svg version="1.0" xmlns="http://www.w3.org/2000/svg"
 width="450.000000pt" height="400.000000pt" viewBox="0 0 450.000000 400.000000"
 preserveAspectRatio="xMidYMid meet">

<g transform="translate(0.000000,400.000000) scale(0.100000,-0.100000)"
fill="#000000" stroke="none">
<path d="M1233 3989 c-62 -12 -121 -41 -178 -86 -102 -82 -67 42 -583 -2026
l-470 -1878 617 3 c685 4 661 2 811 75 90 43 209 157 255 243 22 41 69 216
190 710 l161 655 -303 3 c-219 2 -303 5 -303 14 0 38 265 1059 286 1100 36 70
88 123 152 155 l57 28 965 5 c1075 6 1008 2 1159 77 128 64 238 193 290 338
12 33 52 180 90 328 l67 267 -1610 -1 c-886 -1 -1630 -5 -1653 -10z"/>
<path d="M2069 2826 c-103 -22 -160 -85 -212 -236 -17 -47 -67 -233 -112 -415
l-81 -330 705 -3 c807 -3 818 -2 960 69 134 66 243 190 307 346 12 32 41 137
63 233 23 96 52 214 64 263 l24 87 -831 -1 c-611 0 -846 -4 -887 -13z"/>
<path d="M2538 1240 c-131 -24 -251 -85 -342 -176 -200 -200 -239 -511 -96
-755 112 -189 312 -303 535 -303 347 0 619 272 619 619 0 333 -254 601 -588
619 -44 3 -102 1 -128 -4z"/>
</g>
</svg>
