<svg width="48" height="44" viewBox="0 0 48 44" xmlns="http://www.w3.org/2000/svg">
<path d="M13.1519 0.783995C12.4906 0.911995 11.8612 1.22133 11.2532 1.70133C10.1652 2.57599 10.5386 1.25333 5.03457 23.312L0.0212402 43.344L6.60257 43.312C13.9092 43.2693 13.6532 43.2907 15.2532 42.512C16.2132 42.0533 17.4826 40.8373 17.9732 39.92C18.2079 39.4827 18.7092 37.616 19.9999 32.3467L21.7172 25.36L18.4852 25.328C16.1492 25.3067 15.2532 25.2747 15.2532 25.1787C15.2532 24.7733 18.0799 13.8827 18.3039 13.4453C18.6879 12.6987 19.2426 12.1333 19.9252 11.792L20.5332 11.4933L30.8266 11.44C42.2932 11.376 41.5786 11.4187 43.1892 10.6187C44.5546 9.93599 45.7279 8.55999 46.2826 7.01333C46.4106 6.66133 46.8372 5.09333 47.2426 3.51466L47.9572 0.666661L30.7839 0.677328C21.3332 0.687995 13.3972 0.730661 13.1519 0.783995Z" fill="#0C69AB"/>
<path d="M21.8154 14.1402C20.845 14.3604 20.3081 14.9911 19.8182 16.5028C19.658 16.9734 19.187 18.8355 18.7631 20.6576L18 23.9613L24.6415 23.9914C32.244 24.0214 32.3476 24.0114 33.6854 23.3006C34.9477 22.6398 35.9746 21.3984 36.5775 19.8366C36.6905 19.5163 36.9637 18.4651 37.171 17.504C37.3877 16.5429 37.6609 15.3615 37.7739 14.871L38 14L30.1715 14.01C24.4155 14.01 22.2016 14.0501 21.8154 14.1402Z" fill="#0C69AB"/>
<path d="M27.072 30.1066C25.6746 30.3626 24.3946 31.0133 23.424 31.984C21.2906 34.1173 20.8746 37.4346 22.4 40.0373C23.5946 42.0533 25.728 43.2693 28.1066 43.2693C31.808 43.2693 34.7093 40.368 34.7093 36.6666C34.7093 33.1146 32 30.256 28.4373 30.064C27.968 30.032 27.3493 30.0533 27.072 30.1066Z" fill="#0C69AB"/>
</svg>
